<mxfile host="app.diagrams.net" modified="2024-06-04T08:03:51.866Z" agent="Mozilla/5.0 (Macintosh; Intel Mac OS X 10_15_7) AppleWebKit/537.36 (KHTML, like Gecko) Chrome/120.0.0.0 YaBrowser/24.1.0.0 Safari/537.36" version="24.4.0" etag="-2jkiYN5wEhBP_QitdxZ" type="github">
  <diagram name="Страница — 1" id="ErJwVojsrPIL3w7OGmRs">
    <mxGraphModel>
      <root>
        <mxCell id="0" />
        <mxCell id="1" parent="0" />
      </root>
    </mxGraphModel>
  </diagram>
</mxfile>
